<svg xmlns="http://www.w3.org/2000/svg" viewBox="0 0 89.03739 103.33002"><defs><style>.a{fill:#fff;}</style></defs><title>logoBW</title><path d="M98,87.83S87.17,105.33,64,118C40.83,105.33,30,87.83,30,87.83,20.375,73.875,19.83,54.5,19.83,54.5v-31L64,14.67l44.17,8.83v31S107.75,75.125,98,87.83Z" transform="translate(-19.1326 -14.66998)"/><polygon class="a" points="49.478 45.272 30.381 71.99 0 33.17 0.061 20.238 30.381 58.756 40.473 45.272 49.478 45.272"/><polygon class="a" points="83.867 66.364 58.872 32.645 51.849 43.203 41.081 43.203 58.872 14.072 83.867 66.364"/><polygon class="a" points="68.079 44.33 59.967 44.33 63.467 50.33 71.867 50.33 68.079 44.33"/></svg>