<svg xmlns="http://www.w3.org/2000/svg" viewBox="0 0 91.33997 106.56932"><defs><style>.a{fill:#ff7900;stroke:#ffa300;stroke-miterlimit:10;stroke-width:3px;}.b{fill:#fff;}</style></defs><title>logoColoured</title><path class="a" d="M98,87.83S87.17,105.33,64,118C40.83,105.33,30,87.83,30,87.83,20.375,73.875,19.83,54.5,19.83,54.5v-31L64,14.67l44.17,8.83v31S107.75,75.125,98,87.83Z" transform="translate(-18.33002 -13.1403)"/><polygon class="b" points="49.899 46.689 31.767 72.058 2.92 35.198 2.978 22.918 31.767 59.491 41.349 46.689 49.899 46.689"/><polygon class="b" points="82.553 66.716 58.82 34.699 52.151 44.724 41.926 44.724 58.82 17.064 82.553 66.716"/><polygon class="b" points="68.881 45.86 60.77 45.86 64.27 51.86 72.67 51.86 68.881 45.86"/></svg>