<?xml version="1.0" encoding="utf-8"?>
<!-- Generator: Adobe Illustrator 19.2.1, SVG Export Plug-In . SVG Version: 6.00 Build 0)  -->
<svg version="1.1" id="layer" xmlns="http://www.w3.org/2000/svg" xmlns:xlink="http://www.w3.org/1999/xlink" x="0px" y="0px"
	 viewBox="0 0 652 652" style="enable-background:new 0 0 652 652;" xml:space="preserve">
<style type="text/css">
	.st0{fill:#12B2DE;}
	.st1{fill:#F0884E;}
	.st2{fill:#DF81AC;}
	.st3{fill:#523579;}
</style>
<polygon points="214.3,418.1 218.3,418.1 224.2,433.9 224.3,433.9 224.3,418.1 227.3,418.1 227.3,439.3 223.4,439.3 217.5,423.1 
	217.4,423.1 217.4,439.3 214.3,439.3 "/>
<g>
	<path d="M274.7,428.6c0-7.1-1.5-8.4-3.5-8.4s-3.5,1.2-3.5,8.4c0,7.3,1.5,8.6,3.5,8.6S274.7,435.9,274.7,428.6 M264.5,428.7
		c0-7.6,2.1-11,6.7-11c4.7,0,6.7,3.5,6.7,11c0,7.6-2.1,11-6.7,11C266.5,439.7,264.5,436.3,264.5,428.7"/>
	<path d="M320.9,427.6c2.1,0,3.3-1.3,3.3-3.5c0-2.3-0.9-3.4-3.1-3.4h-2.8v6.9H320.9z M315.1,418.1h7.2c2.9,0,5.2,1.5,5.2,5.5
		c0,2.7-1.2,4.9-3.4,5.2v0.1c2,0.2,3.1,1.4,3.2,4.3c0,1.4,0.1,3,0.1,4.3c0.1,1,0.5,1.5,1,1.8h-3.7c-0.3-0.4-0.5-1-0.5-1.9
		c-0.1-1.3-0.1-2.5-0.1-4c-0.1-2.3-0.7-3.3-3-3.3h-2.7v9.2h-3.3V418.1z"/>
</g>
<polygon points="364.6,418.1 369.7,418.1 373.3,433.8 373.4,433.8 376.9,418.1 381.9,418.1 381.9,439.3 378.8,439.3 378.8,421.7 
	378.7,421.7 374.6,439.3 371.9,439.3 367.8,421.7 367.7,421.7 367.7,439.3 364.6,439.3 "/>
<path d="M427.7,431.4l-2.3-10.5h-0.1l-2.4,10.5H427.7z M423.3,418.1h4.2l5.4,21.2h-3.4l-1.3-5.2h-6l-1.3,5.2h-3.4L423.3,418.1z"/>
<polygon points="468.5,418.1 472.5,418.1 478.4,433.9 478.5,433.9 478.5,418.1 481.6,418.1 481.6,439.3 477.6,439.3 471.7,423.1 
	471.6,423.1 471.6,439.3 468.5,439.3 "/>
<g>
	<path d="M522.4,436.8h2.7c2.7,0,3.8-1.8,3.8-8.1c0-6-1-8.1-3.8-8.1h-2.7V436.8z M519.2,418.1h5.8c6.4,0,7.2,4.3,7.2,10.6
		s-0.8,10.6-7.2,10.6h-5.8V418.1z"/>
</g>
<rect x="569.1" y="418.1" width="3.3" height="21.2"/>
<polygon points="609.9,418.1 620.9,418.1 620.9,421 613.1,421 613.1,426.8 620.4,426.8 620.4,429.7 613.1,429.7 613.1,436.5 
	621.1,436.5 621.1,439.3 609.9,439.3 "/>
<g>
	<path d="M249.7,222.4H264v55.3c0,17.6-5.5,25.9-24.2,25.9c-18.9,0-24.4-8.4-24.4-25.9v-55.3h14.3v54.1c0,7.6,0.5,15.2,10.2,15.2
		c9.3,0,9.8-7.6,9.8-15.2V222.4z"/>
	<path d="M305.8,222.4h14.3v79.4h-14.9L294,273.5c-3.8-9.4-6.8-19.1-10.2-31.5h-0.2c0.5,6.6,1.1,14.6,1.5,22.7
		c0.4,7.9,0.7,15.9,0.7,22.2v14.9h-14.3v-79.4h14.8l11.1,28.9c3.7,9.2,6.7,18.6,10.2,31.5h0.2c-0.5-7.2-1-14.9-1.4-22.5
		c-0.4-7.6-0.7-15.2-0.7-22.3V222.4z"/>
</g>
<rect x="327.9" y="222.4" width="14.3" height="79.4"/>
<g>
	<path d="M382.5,222.4h15.3l-16.5,79.4h-19.1l-16.9-79.4h15.3l9,50.9c0.8,4.4,1.3,9,1.7,13.5c0.2,2.1,0.6,4.3,0.6,6.6h0.2
		c0-2.2,0.4-4.4,0.6-6.6c0.4-4.5,0.9-9.1,1.7-13.5L382.5,222.4z"/>
</g>
<polygon points="400.5,301.8 400.5,222.4 435.2,222.4 435.2,228.6 407.2,228.6 407.2,257.1 432.7,257.1 432.7,263.3 407.2,263.3 
	407.2,295.7 435.7,295.7 435.7,301.8 "/>
<g>
	<path d="M445.9,258.3h11.6c2.2,0,13.5-0.8,13.5-15c0-11.6-5.1-14.7-15.5-14.7h-9.6V258.3z M445.9,264.4v37.4h-6.6v-79.4h14.8
		c14,0,23.6,4.2,23.6,20.3c0,7.7-3.2,16.8-11.2,18.6v0.2c8.9,2.3,10.1,9.4,10.2,19.4c0.2,3.8-0.3,17.8,3.5,19.9v1h-7.2
		c-2.9-6.7-2.6-20.2-3.1-26c-0.7-10.6-8.4-11.3-17-11.3H445.9z"/>
	<path d="M505.2,258.5c11.2,4.9,19.6,8.5,19.6,22.9c0,13.7-8.6,22.3-21.9,22.3c-14,0-21.3-10.3-21-24.3h6.5
		c-0.1,9.9,3.9,18.2,14.4,18.2c9.3,0,15.4-6.1,15.4-16c0-12-8.4-13.9-17.1-17.5c-10.3-4.2-17.6-9-17.6-21.7
		c0-12.9,7.4-21.9,19.9-21.9c11.9,0,19.8,8.6,19.5,21.1h-6.4c0.4-8.8-4.6-14.9-13.2-14.9c-8.7,0-13.2,6.7-13.2,15.3
		c0,7.8,2.4,10.9,9.3,14L505.2,258.5z"/>
</g>
<rect x="530.7" y="222.4" width="6.6" height="79.4"/>
<polygon points="541.2,228.6 541.2,222.4 582.5,222.4 582.5,228.6 565.1,228.6 565.1,301.8 558.5,301.8 558.5,228.6 "/>
<path d="M594.6,216.7l11.3-14.7h8l-14.1,14.7H594.6z M585.1,301.8v-79.4h34.7v6.1h-28v28.6h25.5v6.1h-25.5v32.4h28.6v6.1H585.1z"/>
<g>
	<path d="M221,401.6h8.1c3.8,0,8.4,0,12-1.7c10.4-4.9,10.9-22.3,10.9-32c0-10.1,0.2-25.9-10.1-31.6c-4.1-2.2-10.4-2-15.1-1.8H221
		V401.6z M214.2,328.4h13.9c8.8,0,16.7,0.5,23.1,7.5c5.2,6.3,7.5,18.2,7.5,26.1c0,9,0.2,21-3,29.5c-4.8,13.6-13.2,16.2-26.2,16.2
		h-15.3V328.4z"/>
</g>
<polygon points="269.4,407.7 269.4,328.4 304.7,328.4 304.7,334.5 276.2,334.5 276.2,363.1 302.1,363.1 302.1,369.2 276.2,369.2 
	276.2,401.6 305.2,401.6 305.2,407.7 "/>
<g>
	<path d="M351.8,361.9h11.4c4.8-0.3,8.5-3.5,8.5-11.4c0-8.9-3.6-10.4-9.1-10.5h-10.8V361.9z M351.8,373.6v34.2h-14.5v-79.4h27.5
		c12.6,0,22.1,4.4,22.1,19c0,8.7-2.2,17.8-11.9,19.2v0.2c8.6,1.2,11.2,6.8,11.2,14.4c0,3.3-0.4,22.8,3.1,25.1v1.5h-16
		c-1.8-5.1-1.5-14.8-1.6-20.1c-0.1-4.9,0-11.5-5-13c-4-1.2-8.2-1.1-12.4-1.1H351.8z"/>
	<path d="M413.1,380.4c0,6.6,0.5,17.3,10.5,17.3c10.4,0,10.5-10.9,10.5-18.5v-20.3c0-6.3,0.3-20.4-10.5-20.4
		c-11.4,0-10.5,13.9-10.5,20V380.4z M398.1,361.7c0.6-20.2,2.2-35.2,25.5-35.2c23.3,0,24.8,15,25.5,35.2V373
		c0,21.2-1.6,36.6-25.5,36.6c-23.9,0-25.5-15.5-25.5-36.6V361.7z"/>
	<path d="M495.2,328.4h14.5v55.3c0,17.6-5.6,25.9-24.6,25.9c-19.2,0-24.8-8.4-24.8-25.9v-55.3h14.5v54.1c0,7.6,0.5,15.2,10.4,15.2
		c9.5,0,10-7.6,10-15.2V328.4z"/>
</g>
<polygon points="521.3,407.7 521.3,328.4 562.2,328.4 562.2,340 535.8,340 535.8,360 560.1,360 560.1,371.7 535.8,371.7 
	535.8,396.1 562.2,396.1 562.2,407.7 "/>
<path d="M606.4,328.4h14.5v79.4h-15.2l-11.3-28.3c-3.8-9.4-7-19.1-10.4-31.5h-0.2c0.5,6.6,1.1,14.6,1.6,22.7
	c0.4,7.9,0.7,15.9,0.7,22.2v14.9h-14.6v-79.4h15.1l11.3,28.9c3.7,9.2,6.9,18.6,10.4,31.5h0.2c-0.5-7.2-1-14.9-1.5-22.5
	c-0.4-7.6-0.7-15.2-0.7-22.3V328.4z"/>
<path class="st0" d="M208.7,238.8c0,0-3.5-17.5-21.6-17.5c-18.1,0-27.4,0.3-27.4,0.3v78.9c0,0,22.6-27.5,49-6.4v-55V238.8z"/>
<path class="st1" d="M208.7,328.7c0,0-35.9-24.7-49,20.1v91.2l30.1,0.3c0,0,15.1-1,19.1-17.3C208.7,423.3,208.7,328.7,208.7,328.7"
	/>
<path class="st2" d="M127.8,221l-54.7,0.3l0.3,113c0,0,1.3,25.6,17.7,31.3l0,0c0,0,0.1,0,0.2,0c2.1,0.7,4.4,1.1,7,1.1
	c1.1,0.1,2.4,0.1,3.7,0c5.5,0.3,24.2-1.2,26.1-32.7C127.8,333.7,127.8,221,127.8,221"/>
<path d="M43.9,359.8c0,0,0,1.8,0.2,2.2c0,0.1-2.2,0.1-2.2,0.1l-0.2-1.1l0.1-1.1L43.9,359.8z"/>
<path class="st3" d="M127.7,416.4l0.1-23.1l-0.3,0.4c-1.8,0.6-23,8-44.2,3.1c0.1,0,0.1-0.1,0.1-0.1c-0.9-0.2-1.8-0.4-2.7-0.6
	c-5.7-1.6-11.4-4.2-16.6-8.1c-17.7-14.1-21.9-40.4-22.8-52.8c0-28.3-0.6-114-0.6-114s-14.6,1.4-19.3,19.3
	c0.2-0.3-0.3,178.4-0.3,178.4s2.5,19.9,20.1,21.3l86.6,0.3L127.7,416.4z"/>
</svg>
